<?xml version="1.0" encoding="UTF-8" standalone="no"?>
<svg
   xmlns:dc="http://purl.org/dc/elements/1.1/"
   xmlns:cc="http://creativecommons.org/ns#"
   xmlns:rdf="http://www.w3.org/1999/02/22-rdf-syntax-ns#"
   xmlns:svg="http://www.w3.org/2000/svg"
   xmlns="http://www.w3.org/2000/svg"
   xmlns:sodipodi="http://sodipodi.sourceforge.net/DTD/sodipodi-0.dtd"
   xmlns:inkscape="http://www.inkscape.org/namespaces/inkscape"
   viewBox="0 0 32 32"
   version="1.1"
   id="svg2674"
   sodipodi:docname="xslfo3.svg"
   inkscape:version="0.92.4 (5da689c313, 2019-01-14)">
  <metadata
     id="metadata2680">
    <rdf:RDF>
      <cc:Work
         rdf:about="">
        <dc:format>image/svg+xml</dc:format>
        <dc:type
           rdf:resource="http://purl.org/dc/dcmitype/StillImage" />
        <dc:title></dc:title>
      </cc:Work>
    </rdf:RDF>
  </metadata>
  <defs
     id="defs2678" />
  <sodipodi:namedview
     pagecolor="#ffffff"
     bordercolor="#666666"
     borderopacity="1"
     objecttolerance="10"
     gridtolerance="10"
     guidetolerance="10"
     inkscape:pageopacity="0"
     inkscape:pageshadow="2"
     inkscape:window-width="1519"
     inkscape:window-height="887"
     id="namedview2676"
     showgrid="false"
     inkscape:zoom="7.375"
     inkscape:cx="16"
     inkscape:cy="15.186441"
     inkscape:window-x="0"
     inkscape:window-y="0"
     inkscape:window-maximized="0"
     inkscape:current-layer="svg2674" />
  <path
     style="opacity:1;fill:#ff0000;fill-opacity:1;stroke:none;stroke-width:2.58941031;stroke-miterlimit:4;stroke-dasharray:none;stroke-opacity:1"
     d="M 0.515625 0.05078125 L 4.9765625 15.994141 L 0.16601562 31.833984 L 16.042969 27.355469 L 31.816406 32.185547 L 27.355469 16.242188 L 32.166016 0.40234375 L 16.291016 4.8808594 L 0.515625 0.05078125 z M 16.636719 5.9609375 C 17.062454 5.9609375 17.501207 5.9960506 17.951172 6.0683594 C 18.401136 6.1368624 18.86654 6.2420006 19.347656 6.3828125 L 19.347656 8.1875 C 18.921921 7.978185 18.506531 7.819451 18.101562 7.7128906 C 17.696594 7.6063303 17.313097 7.5527344 16.953125 7.5527344 C 16.47547 7.5527344 16.122975 7.6249137 15.894531 7.7695312 C 15.666088 7.9141489 15.552734 8.1389012 15.552734 8.4433594 C 15.552734 8.671703 15.628955 8.8510741 15.78125 8.9804688 C 15.937007 9.1060578 16.216126 9.2153032 16.621094 9.3066406 L 17.472656 9.4941406 C 18.334512 9.6844269 18.947114 9.973144 19.310547 10.361328 C 19.673979 10.749512 19.855469 11.302101 19.855469 12.017578 C 19.855469 12.957593 19.602556 13.658648 19.09375 14.119141 C 18.588406 14.575828 17.813325 14.802734 16.771484 14.802734 C 16.279984 14.802734 15.787929 14.751192 15.292969 14.648438 C 14.798008 14.545683 14.303554 14.395063 13.808594 14.193359 L 13.808594 12.337891 C 14.303554 12.627126 14.779886 12.845717 15.240234 12.994141 C 15.704044 13.138758 16.150881 13.210937 16.580078 13.210938 C 17.016197 13.210938 17.350127 13.130543 17.582031 12.970703 C 17.813936 12.810862 17.929688 12.582003 17.929688 12.285156 C 17.929687 12.018755 17.850624 11.814539 17.691406 11.669922 C 17.535649 11.525304 17.222685 11.395422 16.751953 11.28125 L 15.978516 11.091797 C 15.203192 10.909122 14.635362 10.618351 14.275391 10.21875 C 13.918881 9.8191487 13.740234 9.280935 13.740234 8.6035156 C 13.740234 7.7548386 13.989859 7.1031716 14.488281 6.6464844 C 14.986703 6.1897972 15.702177 5.9609375 16.636719 5.9609375 z M 5.0800781 6.1152344 L 7.1679688 6.1152344 L 8.8652344 8.8613281 L 10.558594 6.1152344 L 12.654297 6.1152344 L 10.070312 10.287109 L 12.759766 14.636719 L 10.677734 14.636719 L 8.8652344 11.726562 L 7.0683594 14.636719 L 4.9765625 14.636719 L 7.6660156 10.287109 L 5.0800781 6.1152344 z M 21.617188 6.1152344 L 23.615234 6.1152344 L 23.615234 12.976562 L 27.125 12.976562 L 27.125 14.636719 L 21.617188 14.636719 L 21.617188 6.1152344 z M 19.726562 17.652344 C 20.972618 17.652344 21.948198 18.044145 22.654297 18.828125 C 23.360395 19.612105 23.714844 20.694693 23.714844 22.076172 C 23.714844 23.453844 23.360395 24.534379 22.654297 25.318359 C 21.948198 26.102339 20.972618 26.494141 19.726562 26.494141 C 18.483968 26.494141 17.508387 26.102339 16.798828 25.318359 C 16.09273 24.534379 15.738281 23.453844 15.738281 22.076172 C 15.738281 20.694693 16.09273 19.612105 16.798828 18.828125 C 17.508387 18.044145 18.483968 17.652344 19.726562 17.652344 z M 8.9179688 17.806641 L 14.310547 17.806641 L 14.310547 19.466797 L 10.916016 19.466797 L 10.916016 21.054688 L 14.109375 21.054688 L 14.109375 22.714844 L 10.916016 22.714844 L 10.916016 26.328125 L 8.9179688 26.328125 L 8.9179688 17.806641 z M 19.726562 19.244141 C 19.11738 19.244141 18.644336 19.491584 18.308594 19.986328 C 17.972851 20.481073 17.804688 21.17802 17.804688 22.076172 C 17.804688 22.970518 17.972851 23.665412 18.308594 24.160156 C 18.644336 24.6549 19.11738 24.902344 19.726562 24.902344 C 20.339206 24.902344 20.812694 24.6549 21.148438 24.160156 C 21.48418 23.665412 21.652344 22.970518 21.652344 22.076172 C 21.652344 21.17802 21.48418 20.481073 21.148438 19.986328 C 20.812694 19.491584 20.339206 19.244141 19.726562 19.244141 z "
     id="path6970" />
  <g
     aria-label="XSL
FO"
     style="font-style:normal;font-variant:normal;font-weight:bold;font-stretch:normal;font-size:12px;line-height:1;font-family:sans-serif;-inkscape-font-specification:'sans-serif Bold';text-align:center;letter-spacing:0px;word-spacing:0px;text-anchor:middle;fill:#ffffff;fill-opacity:1;stroke:none"
     id="text6930"
     transform="matrix(0.88608389,0,0,0.97426606,1.5626599,0.89888298)" />
</svg>
